<svg viewBox="0 0 24 24" xmlns="http://www.w3.org/2000/svg">
  <path fill="#FF9900" d="M12.58 16.18c-.69.05-1.4-.03-2.07-.24-.67-.21-1.3-.54-1.85-.99-.55-.44-1.02-.99-1.38-1.61-.36-.62-.61-1.3-.74-2.01-.13-.71-.14-1.44-.03-2.15.11-.71.36-1.39.72-2.01.36-.62.83-1.17 1.38-1.61.55-.44 1.18-.78 1.85-.99.67-.21 1.38-.29 2.07-.24.69.05 1.38.23 2.01.54.63.31 1.2.75 1.67 1.29.47.54.84 1.17 1.08 1.85.24.68.35 1.4.32 2.12-.03.72-.2 1.43-.5 2.08-.3.65-.73 1.24-1.26 1.73-.53.49-1.15.87-1.82 1.12-.67.25-1.38.37-2.09.34z"/>
  <path fill="#232F3E" d="M7.5 11.5c0-2.76 2.24-5 5-5s5 2.24 5 5-2.24 5-5 5-5-2.24-5-5z"/>
  <path fill="#FF9900" d="M3 18.5s2.5-1.5 9-1.5 9 1.5 9 1.5v1s-2.5-1.5-9-1.5-9 1.5-9 1.5v-1z"/>
</svg>
