<svg width="32" height="32" viewBox="0 0 32 32" fill="none" xmlns="http://www.w3.org/2000/svg">
  <defs>
    <linearGradient id="logoGradient" x1="0%" y1="0%" x2="100%" y2="100%">
      <stop offset="0%" style="stop-color:#3B82F6;stop-opacity:1" />
      <stop offset="50%" style="stop-color:#8B5CF6;stop-opacity:1" />
      <stop offset="100%" style="stop-color:#EC4899;stop-opacity:1" />
    </linearGradient>
  </defs>
  
  <!-- Document shape -->
  <path d="M8 3C8 2.44772 8.44772 2 9 2H20L24 6V29C24 29.5523 23.5523 30 23 30H9C8.44772 30 8 29.5523 8 29V3Z" fill="url(#logoGradient)" stroke="url(#logoGradient)" stroke-width="1"/>
  
  <!-- Folded corner -->
  <path d="M20 2V6H24" fill="url(#logoGradient)" opacity="0.8"/>
  
  <!-- Resume lines -->
  <rect x="12" y="10" width="8" height="2" rx="1" fill="white" opacity="0.9"/>
  <rect x="12" y="14" width="6" height="2" rx="1" fill="white" opacity="0.7"/>
  <rect x="12" y="18" width="8" height="2" rx="1" fill="white" opacity="0.9"/>
  <rect x="12" y="22" width="5" height="2" rx="1" fill="white" opacity="0.7"/>
  
  <!-- Sparkle effect -->
  <circle cx="22" cy="8" r="1.5" fill="#FCD34D" opacity="0.9"/>
  <circle cx="25" cy="11" r="1" fill="#FCD34D" opacity="0.7"/>
</svg>
